<mxfile host="app.diagrams.net" modified="2023-05-02T13:13:32.309Z" agent="Mozilla/5.0 (Windows NT 10.0; Win64; x64) AppleWebKit/537.36 (KHTML, like Gecko) Chrome/112.0.0.0 Safari/537.36 Edg/112.0.1722.64" etag="lG5RWskNCpmtEPtVoolX" version="21.2.4" type="github">
  <diagram name="Page-1" id="XqlgBzMHJyIaJ3oK8l7b">
    <mxGraphModel dx="1000" dy="546" grid="0" gridSize="10" guides="1" tooltips="1" connect="1" arrows="1" fold="1" page="1" pageScale="1" pageWidth="827" pageHeight="1169" math="0" shadow="0">
      <root>
        <mxCell id="0" />
        <mxCell id="1" parent="0" />
        <mxCell id="zdTx3KKduZTCeoLZb30S-14" style="rounded=0;orthogonalLoop=1;jettySize=auto;html=1;endArrow=none;endFill=0;exitX=0.462;exitY=0.451;exitDx=0;exitDy=0;exitPerimeter=0;entryX=0.467;entryY=0.397;entryDx=0;entryDy=0;entryPerimeter=0;" edge="1" parent="1" source="Up9sGDlBvwnV9ssLS-Lt-44" target="Up9sGDlBvwnV9ssLS-Lt-10">
          <mxGeometry relative="1" as="geometry" />
        </mxCell>
        <mxCell id="zdTx3KKduZTCeoLZb30S-15" style="rounded=0;orthogonalLoop=1;jettySize=auto;html=1;endArrow=none;endFill=0;entryX=0.5;entryY=0.448;entryDx=0;entryDy=0;entryPerimeter=0;exitX=0.435;exitY=0.5;exitDx=0;exitDy=0;exitPerimeter=0;" edge="1" parent="1" source="Up9sGDlBvwnV9ssLS-Lt-44" target="Up9sGDlBvwnV9ssLS-Lt-9">
          <mxGeometry relative="1" as="geometry" />
        </mxCell>
        <mxCell id="zdTx3KKduZTCeoLZb30S-12" style="rounded=0;orthogonalLoop=1;jettySize=auto;html=1;endArrow=none;endFill=0;exitX=0.5;exitY=0.431;exitDx=0;exitDy=0;exitPerimeter=0;entryX=0.5;entryY=0.414;entryDx=0;entryDy=0;entryPerimeter=0;" edge="1" parent="1" source="Up9sGDlBvwnV9ssLS-Lt-45" target="Up9sGDlBvwnV9ssLS-Lt-10">
          <mxGeometry relative="1" as="geometry" />
        </mxCell>
        <mxCell id="zdTx3KKduZTCeoLZb30S-13" style="rounded=0;orthogonalLoop=1;jettySize=auto;html=1;endArrow=none;endFill=0;exitX=0.46;exitY=0.431;exitDx=0;exitDy=0;exitPerimeter=0;entryX=0.5;entryY=0.448;entryDx=0;entryDy=0;entryPerimeter=0;" edge="1" parent="1" source="Up9sGDlBvwnV9ssLS-Lt-45" target="Up9sGDlBvwnV9ssLS-Lt-9">
          <mxGeometry relative="1" as="geometry" />
        </mxCell>
        <mxCell id="zdTx3KKduZTCeoLZb30S-11" style="rounded=0;orthogonalLoop=1;jettySize=auto;html=1;endArrow=none;endFill=0;entryX=0.459;entryY=0.5;entryDx=0;entryDy=0;entryPerimeter=0;exitX=0.5;exitY=0.451;exitDx=0;exitDy=0;exitPerimeter=0;" edge="1" parent="1" source="Up9sGDlBvwnV9ssLS-Lt-47" target="Up9sGDlBvwnV9ssLS-Lt-8">
          <mxGeometry relative="1" as="geometry" />
        </mxCell>
        <mxCell id="zdTx3KKduZTCeoLZb30S-10" style="rounded=0;orthogonalLoop=1;jettySize=auto;html=1;endArrow=none;endFill=0;entryX=0.5;entryY=0.5;entryDx=0;entryDy=0;entryPerimeter=0;exitX=0.475;exitY=0.5;exitDx=0;exitDy=0;exitPerimeter=0;" edge="1" parent="1" source="Up9sGDlBvwnV9ssLS-Lt-47" target="Up9sGDlBvwnV9ssLS-Lt-10">
          <mxGeometry relative="1" as="geometry" />
        </mxCell>
        <mxCell id="zdTx3KKduZTCeoLZb30S-8" style="rounded=0;orthogonalLoop=1;jettySize=auto;html=1;endArrow=none;endFill=0;entryX=0.432;entryY=0.448;entryDx=0;entryDy=0;entryPerimeter=0;exitX=0.5;exitY=0.431;exitDx=0;exitDy=0;exitPerimeter=0;" edge="1" parent="1" source="Up9sGDlBvwnV9ssLS-Lt-46" target="Up9sGDlBvwnV9ssLS-Lt-10">
          <mxGeometry relative="1" as="geometry" />
        </mxCell>
        <mxCell id="zdTx3KKduZTCeoLZb30S-9" style="rounded=0;orthogonalLoop=1;jettySize=auto;html=1;endArrow=none;endFill=0;entryX=0.471;entryY=0.414;entryDx=0;entryDy=0;entryPerimeter=0;exitX=0.5;exitY=0.451;exitDx=0;exitDy=0;exitPerimeter=0;" edge="1" parent="1" source="Up9sGDlBvwnV9ssLS-Lt-46" target="Up9sGDlBvwnV9ssLS-Lt-8">
          <mxGeometry relative="1" as="geometry" />
        </mxCell>
        <mxCell id="zdTx3KKduZTCeoLZb30S-7" style="rounded=0;orthogonalLoop=1;jettySize=auto;html=1;endArrow=none;endFill=0;entryX=0.449;entryY=0.448;entryDx=0;entryDy=0;entryPerimeter=0;exitX=0.5;exitY=0.431;exitDx=0;exitDy=0;exitPerimeter=0;" edge="1" parent="1" source="Up9sGDlBvwnV9ssLS-Lt-47" target="Up9sGDlBvwnV9ssLS-Lt-9">
          <mxGeometry relative="1" as="geometry" />
        </mxCell>
        <mxCell id="zdTx3KKduZTCeoLZb30S-6" style="rounded=0;orthogonalLoop=1;jettySize=auto;html=1;endArrow=none;endFill=0;entryX=0.5;entryY=0.431;entryDx=0;entryDy=0;entryPerimeter=0;exitX=0.5;exitY=0.431;exitDx=0;exitDy=0;exitPerimeter=0;" edge="1" parent="1" source="Up9sGDlBvwnV9ssLS-Lt-46" target="Up9sGDlBvwnV9ssLS-Lt-9">
          <mxGeometry relative="1" as="geometry" />
        </mxCell>
        <mxCell id="Up9sGDlBvwnV9ssLS-Lt-58" style="rounded=0;orthogonalLoop=1;jettySize=auto;html=1;endArrow=none;endFill=0;entryX=0.5;entryY=0.431;entryDx=0;entryDy=0;entryPerimeter=0;exitX=0.446;exitY=0.451;exitDx=0;exitDy=0;exitPerimeter=0;" parent="1" source="Up9sGDlBvwnV9ssLS-Lt-45" target="Up9sGDlBvwnV9ssLS-Lt-8" edge="1">
          <mxGeometry relative="1" as="geometry" />
        </mxCell>
        <mxCell id="Up9sGDlBvwnV9ssLS-Lt-35" style="rounded=0;orthogonalLoop=1;jettySize=auto;html=1;endArrow=none;endFill=0;entryX=0.477;entryY=0.45;entryDx=0;entryDy=0;entryPerimeter=0;exitX=0.5;exitY=0.431;exitDx=0;exitDy=0;exitPerimeter=0;" parent="1" source="Up9sGDlBvwnV9ssLS-Lt-9" target="Up9sGDlBvwnV9ssLS-Lt-7" edge="1">
          <mxGeometry relative="1" as="geometry" />
        </mxCell>
        <mxCell id="Up9sGDlBvwnV9ssLS-Lt-36" style="rounded=0;orthogonalLoop=1;jettySize=auto;html=1;endArrow=none;endFill=0;entryX=0.466;entryY=0.45;entryDx=0;entryDy=0;entryPerimeter=0;exitX=0.466;exitY=0.431;exitDx=0;exitDy=0;exitPerimeter=0;" parent="1" source="Up9sGDlBvwnV9ssLS-Lt-9" target="Up9sGDlBvwnV9ssLS-Lt-5" edge="1">
          <mxGeometry relative="1" as="geometry" />
        </mxCell>
        <mxCell id="Up9sGDlBvwnV9ssLS-Lt-34" style="rounded=0;orthogonalLoop=1;jettySize=auto;html=1;endArrow=none;endFill=0;exitX=0.467;exitY=0.414;exitDx=0;exitDy=0;exitPerimeter=0;entryX=0.466;entryY=0.467;entryDx=0;entryDy=0;entryPerimeter=0;" parent="1" source="Up9sGDlBvwnV9ssLS-Lt-10" target="Up9sGDlBvwnV9ssLS-Lt-5" edge="1">
          <mxGeometry relative="1" as="geometry" />
        </mxCell>
        <mxCell id="Up9sGDlBvwnV9ssLS-Lt-33" style="rounded=0;orthogonalLoop=1;jettySize=auto;html=1;endArrow=none;endFill=0;entryX=0.443;entryY=0.433;entryDx=0;entryDy=0;entryPerimeter=0;exitX=0.485;exitY=0.431;exitDx=0;exitDy=0;exitPerimeter=0;" parent="1" source="Up9sGDlBvwnV9ssLS-Lt-8" target="Up9sGDlBvwnV9ssLS-Lt-7" edge="1">
          <mxGeometry relative="1" as="geometry" />
        </mxCell>
        <mxCell id="Up9sGDlBvwnV9ssLS-Lt-30" style="rounded=0;orthogonalLoop=1;jettySize=auto;html=1;endArrow=none;endFill=0;exitX=0.425;exitY=0.466;exitDx=0;exitDy=0;exitPerimeter=0;entryX=0.454;entryY=0.467;entryDx=0;entryDy=0;entryPerimeter=0;" parent="1" source="Up9sGDlBvwnV9ssLS-Lt-8" target="Up9sGDlBvwnV9ssLS-Lt-5" edge="1">
          <mxGeometry relative="1" as="geometry" />
        </mxCell>
        <mxCell id="Up9sGDlBvwnV9ssLS-Lt-32" style="rounded=0;orthogonalLoop=1;jettySize=auto;html=1;entryX=0.454;entryY=0.417;entryDx=0;entryDy=0;entryPerimeter=0;endArrow=none;endFill=0;exitX=0.5;exitY=0.466;exitDx=0;exitDy=0;exitPerimeter=0;" parent="1" source="Up9sGDlBvwnV9ssLS-Lt-10" target="Up9sGDlBvwnV9ssLS-Lt-7" edge="1">
          <mxGeometry relative="1" as="geometry" />
        </mxCell>
        <mxCell id="Up9sGDlBvwnV9ssLS-Lt-26" style="rounded=0;orthogonalLoop=1;jettySize=auto;html=1;entryX=0.546;entryY=0.417;entryDx=0;entryDy=0;entryPerimeter=0;endArrow=none;endFill=0;exitX=0.423;exitY=0.433;exitDx=0;exitDy=0;exitPerimeter=0;" parent="1" source="Up9sGDlBvwnV9ssLS-Lt-6" target="Up9sGDlBvwnV9ssLS-Lt-5" edge="1">
          <mxGeometry relative="1" as="geometry" />
        </mxCell>
        <mxCell id="Up9sGDlBvwnV9ssLS-Lt-25" style="rounded=0;orthogonalLoop=1;jettySize=auto;html=1;entryX=0.489;entryY=0.5;entryDx=0;entryDy=0;entryPerimeter=0;endArrow=none;endFill=0;exitX=0.5;exitY=0.45;exitDx=0;exitDy=0;exitPerimeter=0;" parent="1" source="Up9sGDlBvwnV9ssLS-Lt-7" target="Up9sGDlBvwnV9ssLS-Lt-4" edge="1">
          <mxGeometry relative="1" as="geometry" />
        </mxCell>
        <mxCell id="Up9sGDlBvwnV9ssLS-Lt-28" style="edgeStyle=orthogonalEdgeStyle;rounded=0;orthogonalLoop=1;jettySize=auto;html=1;entryX=0.552;entryY=0.417;entryDx=0;entryDy=0;entryPerimeter=0;endArrow=none;endFill=0;exitX=0.5;exitY=0.417;exitDx=0;exitDy=0;exitPerimeter=0;" parent="1" source="Up9sGDlBvwnV9ssLS-Lt-6" target="Up9sGDlBvwnV9ssLS-Lt-7" edge="1">
          <mxGeometry relative="1" as="geometry" />
        </mxCell>
        <mxCell id="Up9sGDlBvwnV9ssLS-Lt-11" value="" style="rounded=0;whiteSpace=wrap;html=1;fillColor=none;dashed=1;" parent="1" vertex="1">
          <mxGeometry x="57" y="333" width="696" height="129" as="geometry" />
        </mxCell>
        <mxCell id="Up9sGDlBvwnV9ssLS-Lt-24" style="rounded=0;orthogonalLoop=1;jettySize=auto;html=1;entryX=0.525;entryY=0.325;entryDx=0;entryDy=0;endArrow=none;endFill=0;entryPerimeter=0;exitX=0.523;exitY=0.367;exitDx=0;exitDy=0;exitPerimeter=0;" parent="1" source="Up9sGDlBvwnV9ssLS-Lt-4" target="Up9sGDlBvwnV9ssLS-Lt-3" edge="1">
          <mxGeometry relative="1" as="geometry" />
        </mxCell>
        <mxCell id="Up9sGDlBvwnV9ssLS-Lt-23" style="rounded=0;orthogonalLoop=1;jettySize=auto;html=1;entryX=0.513;entryY=0.325;entryDx=0;entryDy=0;endArrow=none;endFill=0;entryPerimeter=0;exitX=0.423;exitY=0.417;exitDx=0;exitDy=0;exitPerimeter=0;" parent="1" source="Up9sGDlBvwnV9ssLS-Lt-6" target="Up9sGDlBvwnV9ssLS-Lt-2" edge="1">
          <mxGeometry relative="1" as="geometry" />
        </mxCell>
        <mxCell id="Up9sGDlBvwnV9ssLS-Lt-13" value="" style="rounded=0;whiteSpace=wrap;html=1;fillColor=none;dashed=1;" parent="1" vertex="1">
          <mxGeometry x="57" y="632" width="696" height="129" as="geometry" />
        </mxCell>
        <mxCell id="Up9sGDlBvwnV9ssLS-Lt-12" value="" style="rounded=0;whiteSpace=wrap;html=1;fillColor=none;dashed=1;" parent="1" vertex="1">
          <mxGeometry x="57" y="473.5" width="696" height="129" as="geometry" />
        </mxCell>
        <mxCell id="Up9sGDlBvwnV9ssLS-Lt-17" style="rounded=0;orthogonalLoop=1;jettySize=auto;html=1;endArrow=none;endFill=0;entryX=0.513;entryY=0.325;entryDx=0;entryDy=0;entryPerimeter=0;" parent="1" source="Up9sGDlBvwnV9ssLS-Lt-1" target="Up9sGDlBvwnV9ssLS-Lt-2" edge="1">
          <mxGeometry relative="1" as="geometry">
            <mxPoint x="316" y="204" as="targetPoint" />
          </mxGeometry>
        </mxCell>
        <mxCell id="Up9sGDlBvwnV9ssLS-Lt-18" style="rounded=0;orthogonalLoop=1;jettySize=auto;html=1;endArrow=none;endFill=0;entryX=0.513;entryY=0.337;entryDx=0;entryDy=0;entryPerimeter=0;" parent="1" source="Up9sGDlBvwnV9ssLS-Lt-1" target="Up9sGDlBvwnV9ssLS-Lt-3" edge="1">
          <mxGeometry relative="1" as="geometry" />
        </mxCell>
        <mxCell id="Up9sGDlBvwnV9ssLS-Lt-1" value="" style="outlineConnect=0;dashed=0;verticalLabelPosition=bottom;verticalAlign=top;align=center;html=1;shape=mxgraph.aws3.internet_3;fillColor=#D2D3D3;gradientColor=none;" parent="1" vertex="1">
          <mxGeometry x="374" y="62" width="79.5" height="54" as="geometry" />
        </mxCell>
        <mxCell id="Up9sGDlBvwnV9ssLS-Lt-20" style="edgeStyle=orthogonalEdgeStyle;rounded=0;orthogonalLoop=1;jettySize=auto;html=1;endArrow=none;endFill=0;exitX=0.499;exitY=0.325;exitDx=0;exitDy=0;exitPerimeter=0;entryX=0.5;entryY=0.367;entryDx=0;entryDy=0;entryPerimeter=0;" parent="1" source="Up9sGDlBvwnV9ssLS-Lt-2" target="Up9sGDlBvwnV9ssLS-Lt-4" edge="1">
          <mxGeometry relative="1" as="geometry" />
        </mxCell>
        <mxCell id="Up9sGDlBvwnV9ssLS-Lt-2" value="" style="image;html=1;image=img/lib/clip_art/networking/Router_Icon_128x128.png" parent="1" vertex="1">
          <mxGeometry x="250" y="210" width="80" height="80" as="geometry" />
        </mxCell>
        <mxCell id="Up9sGDlBvwnV9ssLS-Lt-21" style="rounded=0;orthogonalLoop=1;jettySize=auto;html=1;entryX=0.471;entryY=0.4;entryDx=0;entryDy=0;entryPerimeter=0;endArrow=none;endFill=0;exitX=0.5;exitY=0.337;exitDx=0;exitDy=0;exitPerimeter=0;" parent="1" source="Up9sGDlBvwnV9ssLS-Lt-3" target="Up9sGDlBvwnV9ssLS-Lt-6" edge="1">
          <mxGeometry relative="1" as="geometry" />
        </mxCell>
        <mxCell id="Up9sGDlBvwnV9ssLS-Lt-3" value="" style="image;html=1;image=img/lib/clip_art/networking/Router_Icon_128x128.png" parent="1" vertex="1">
          <mxGeometry x="489" y="210" width="80" height="80" as="geometry" />
        </mxCell>
        <mxCell id="Up9sGDlBvwnV9ssLS-Lt-22" style="rounded=0;orthogonalLoop=1;jettySize=auto;html=1;shape=link;exitX=0.432;exitY=0.5;exitDx=0;exitDy=0;exitPerimeter=0;entryX=0.48;entryY=0.5;entryDx=0;entryDy=0;entryPerimeter=0;" parent="1" source="Up9sGDlBvwnV9ssLS-Lt-4" target="Up9sGDlBvwnV9ssLS-Lt-6" edge="1">
          <mxGeometry relative="1" as="geometry" />
        </mxCell>
        <mxCell id="Up9sGDlBvwnV9ssLS-Lt-27" style="edgeStyle=orthogonalEdgeStyle;rounded=0;orthogonalLoop=1;jettySize=auto;html=1;endArrow=none;endFill=0;exitX=0.5;exitY=0.45;exitDx=0;exitDy=0;exitPerimeter=0;entryX=0.5;entryY=0.367;entryDx=0;entryDy=0;entryPerimeter=0;" parent="1" source="Up9sGDlBvwnV9ssLS-Lt-4" target="Up9sGDlBvwnV9ssLS-Lt-5" edge="1">
          <mxGeometry relative="1" as="geometry" />
        </mxCell>
        <mxCell id="Up9sGDlBvwnV9ssLS-Lt-4" value="" style="image;points=[];aspect=fixed;html=1;align=center;shadow=0;dashed=0;image=img/lib/allied_telesis/switch/Switch_24_port_L3.svg;" parent="1" vertex="1">
          <mxGeometry x="246.23" y="366" width="87.53" height="60" as="geometry" />
        </mxCell>
        <mxCell id="Up9sGDlBvwnV9ssLS-Lt-5" value="" style="image;points=[];aspect=fixed;html=1;align=center;shadow=0;dashed=0;image=img/lib/allied_telesis/switch/Switch_24_port_L3.svg;" parent="1" vertex="1">
          <mxGeometry x="246.23000000000002" y="508" width="87.53" height="60" as="geometry" />
        </mxCell>
        <mxCell id="Up9sGDlBvwnV9ssLS-Lt-6" value="" style="image;points=[];aspect=fixed;html=1;align=center;shadow=0;dashed=0;image=img/lib/allied_telesis/switch/Switch_24_port_L3.svg;" parent="1" vertex="1">
          <mxGeometry x="489" y="366" width="87.53" height="60" as="geometry" />
        </mxCell>
        <mxCell id="Up9sGDlBvwnV9ssLS-Lt-7" value="" style="image;points=[];aspect=fixed;html=1;align=center;shadow=0;dashed=0;image=img/lib/allied_telesis/switch/Switch_24_port_L3.svg;" parent="1" vertex="1">
          <mxGeometry x="485.23" y="508" width="87.53" height="60" as="geometry" />
        </mxCell>
        <mxCell id="Up9sGDlBvwnV9ssLS-Lt-57" style="rounded=0;orthogonalLoop=1;jettySize=auto;html=1;endArrow=none;endFill=0;exitX=0.5;exitY=0.414;exitDx=0;exitDy=0;exitPerimeter=0;entryX=0.457;entryY=0.412;entryDx=0;entryDy=0;entryPerimeter=0;" parent="1" source="Up9sGDlBvwnV9ssLS-Lt-8" target="Up9sGDlBvwnV9ssLS-Lt-44" edge="1">
          <mxGeometry relative="1" as="geometry" />
        </mxCell>
        <mxCell id="Up9sGDlBvwnV9ssLS-Lt-8" value="" style="image;points=[];aspect=fixed;html=1;align=center;shadow=0;dashed=0;image=img/lib/allied_telesis/switch/Switch_24_port_L2.svg;" parent="1" vertex="1">
          <mxGeometry x="168.19" y="677" width="84.61" height="58" as="geometry" />
        </mxCell>
        <mxCell id="Up9sGDlBvwnV9ssLS-Lt-9" value="" style="image;points=[];aspect=fixed;html=1;align=center;shadow=0;dashed=0;image=img/lib/allied_telesis/switch/Switch_24_port_L2.svg;" parent="1" vertex="1">
          <mxGeometry x="569" y="674" width="84.61" height="58" as="geometry" />
        </mxCell>
        <mxCell id="Up9sGDlBvwnV9ssLS-Lt-10" value="" style="image;points=[];aspect=fixed;html=1;align=center;shadow=0;dashed=0;image=img/lib/allied_telesis/switch/Switch_24_port_L2.svg;" parent="1" vertex="1">
          <mxGeometry x="371.45" y="674" width="84.61" height="58" as="geometry" />
        </mxCell>
        <mxCell id="Up9sGDlBvwnV9ssLS-Lt-14" value="CORE" style="text;html=1;align=center;verticalAlign=middle;resizable=0;points=[];autosize=1;strokeColor=none;fillColor=none;" parent="1" vertex="1">
          <mxGeometry x="57" y="333" width="53" height="26" as="geometry" />
        </mxCell>
        <mxCell id="Up9sGDlBvwnV9ssLS-Lt-15" value="DISTRIBUTION" style="text;html=1;align=center;verticalAlign=middle;resizable=0;points=[];autosize=1;strokeColor=none;fillColor=none;" parent="1" vertex="1">
          <mxGeometry x="57" y="473.5" width="103" height="26" as="geometry" />
        </mxCell>
        <mxCell id="Up9sGDlBvwnV9ssLS-Lt-16" value="ACCES" style="text;html=1;align=center;verticalAlign=middle;resizable=0;points=[];autosize=1;strokeColor=none;fillColor=none;" parent="1" vertex="1">
          <mxGeometry x="57" y="632" width="59" height="26" as="geometry" />
        </mxCell>
        <mxCell id="Up9sGDlBvwnV9ssLS-Lt-29" value="INTERNET" style="text;html=1;align=center;verticalAlign=middle;resizable=0;points=[];autosize=1;strokeColor=none;fillColor=none;" parent="1" vertex="1">
          <mxGeometry x="453.5" y="79" width="78" height="26" as="geometry" />
        </mxCell>
        <mxCell id="Up9sGDlBvwnV9ssLS-Lt-37" value="" style="rounded=0;whiteSpace=wrap;html=1;fillColor=none;dashed=1;" parent="1" vertex="1">
          <mxGeometry x="57" y="777" width="331" height="347" as="geometry" />
        </mxCell>
        <mxCell id="Up9sGDlBvwnV9ssLS-Lt-38" value="" style="rounded=0;whiteSpace=wrap;html=1;fillColor=none;dashed=1;" parent="1" vertex="1">
          <mxGeometry x="422" y="777" width="331" height="347" as="geometry" />
        </mxCell>
        <mxCell id="Up9sGDlBvwnV9ssLS-Lt-39" value="USERS" style="text;html=1;align=center;verticalAlign=middle;resizable=0;points=[];autosize=1;strokeColor=none;fillColor=none;" parent="1" vertex="1">
          <mxGeometry x="57" y="777" width="59" height="26" as="geometry" />
        </mxCell>
        <mxCell id="Up9sGDlBvwnV9ssLS-Lt-41" value="PROD" style="text;html=1;align=center;verticalAlign=middle;resizable=0;points=[];autosize=1;strokeColor=none;fillColor=none;" parent="1" vertex="1">
          <mxGeometry x="700" y="777" width="53" height="26" as="geometry" />
        </mxCell>
        <mxCell id="Up9sGDlBvwnV9ssLS-Lt-42" value="" style="rounded=0;whiteSpace=wrap;html=1;fillColor=none;dashed=1;" parent="1" vertex="1">
          <mxGeometry x="57" y="157" width="189" height="167" as="geometry" />
        </mxCell>
        <mxCell id="Up9sGDlBvwnV9ssLS-Lt-43" value="DMZ" style="text;html=1;align=center;verticalAlign=middle;resizable=0;points=[];autosize=1;strokeColor=none;fillColor=none;" parent="1" vertex="1">
          <mxGeometry x="57" y="157" width="44" height="26" as="geometry" />
        </mxCell>
        <mxCell id="zdTx3KKduZTCeoLZb30S-1" style="rounded=0;orthogonalLoop=1;jettySize=auto;html=1;endArrow=none;endFill=0;exitX=0.476;exitY=0.412;exitDx=0;exitDy=0;exitPerimeter=0;entryX=0.5;entryY=0.356;entryDx=0;entryDy=0;entryPerimeter=0;" edge="1" parent="1" source="Up9sGDlBvwnV9ssLS-Lt-44" target="Up9sGDlBvwnV9ssLS-Lt-49">
          <mxGeometry relative="1" as="geometry" />
        </mxCell>
        <mxCell id="zdTx3KKduZTCeoLZb30S-2" style="rounded=0;orthogonalLoop=1;jettySize=auto;html=1;endArrow=none;endFill=0;exitX=0.368;exitY=0.569;exitDx=0;exitDy=0;exitPerimeter=0;entryX=0.439;entryY=0.421;entryDx=0;entryDy=0;entryPerimeter=0;" edge="1" parent="1" source="Up9sGDlBvwnV9ssLS-Lt-44" target="Up9sGDlBvwnV9ssLS-Lt-50">
          <mxGeometry relative="1" as="geometry" />
        </mxCell>
        <mxCell id="Up9sGDlBvwnV9ssLS-Lt-44" value="" style="image;points=[];aspect=fixed;html=1;align=center;shadow=0;dashed=0;image=img/lib/allied_telesis/switch/Switch_24_port_L2.svg;" parent="1" vertex="1">
          <mxGeometry x="85.6" y="856" width="74.4" height="51" as="geometry" />
        </mxCell>
        <mxCell id="zdTx3KKduZTCeoLZb30S-4" style="rounded=0;orthogonalLoop=1;jettySize=auto;html=1;endArrow=none;endFill=0;exitX=0.473;exitY=0.431;exitDx=0;exitDy=0;exitPerimeter=0;entryX=0.526;entryY=0.388;entryDx=0;entryDy=0;entryPerimeter=0;" edge="1" parent="1" source="Up9sGDlBvwnV9ssLS-Lt-45" target="Up9sGDlBvwnV9ssLS-Lt-51">
          <mxGeometry relative="1" as="geometry" />
        </mxCell>
        <mxCell id="zdTx3KKduZTCeoLZb30S-5" style="rounded=0;orthogonalLoop=1;jettySize=auto;html=1;endArrow=none;endFill=0;exitX=0.406;exitY=0.5;exitDx=0;exitDy=0;exitPerimeter=0;entryX=0.548;entryY=0.5;entryDx=0;entryDy=0;entryPerimeter=0;" edge="1" parent="1" source="Up9sGDlBvwnV9ssLS-Lt-45" target="Up9sGDlBvwnV9ssLS-Lt-52">
          <mxGeometry relative="1" as="geometry" />
        </mxCell>
        <mxCell id="Up9sGDlBvwnV9ssLS-Lt-45" value="" style="image;points=[];aspect=fixed;html=1;align=center;shadow=0;dashed=0;image=img/lib/allied_telesis/switch/Switch_24_port_L2.svg;" parent="1" vertex="1">
          <mxGeometry x="252.8" y="856" width="74.4" height="51" as="geometry" />
        </mxCell>
        <mxCell id="Up9sGDlBvwnV9ssLS-Lt-46" value="" style="image;points=[];aspect=fixed;html=1;align=center;shadow=0;dashed=0;image=img/lib/allied_telesis/switch/Switch_24_port_L2.svg;" parent="1" vertex="1">
          <mxGeometry x="467" y="856" width="74.4" height="51" as="geometry" />
        </mxCell>
        <mxCell id="Up9sGDlBvwnV9ssLS-Lt-47" value="" style="image;points=[];aspect=fixed;html=1;align=center;shadow=0;dashed=0;image=img/lib/allied_telesis/switch/Switch_24_port_L2.svg;" parent="1" vertex="1">
          <mxGeometry x="648.63" y="856" width="74.4" height="51" as="geometry" />
        </mxCell>
        <mxCell id="Up9sGDlBvwnV9ssLS-Lt-49" value="" style="image;points=[];aspect=fixed;html=1;align=center;shadow=0;dashed=0;image=img/lib/allied_telesis/computer_and_terminals/Personal_Computer.svg;" parent="1" vertex="1">
          <mxGeometry x="70.4" y="980" width="45.6" height="61.800000000000004" as="geometry" />
        </mxCell>
        <mxCell id="Up9sGDlBvwnV9ssLS-Lt-50" value="" style="image;points=[];aspect=fixed;html=1;align=center;shadow=0;dashed=0;image=img/lib/allied_telesis/computer_and_terminals/Personal_Computer.svg;" parent="1" vertex="1">
          <mxGeometry x="147" y="980" width="45.6" height="61.800000000000004" as="geometry" />
        </mxCell>
        <mxCell id="Up9sGDlBvwnV9ssLS-Lt-51" value="" style="image;points=[];aspect=fixed;html=1;align=center;shadow=0;dashed=0;image=img/lib/allied_telesis/computer_and_terminals/Personal_Computer.svg;" parent="1" vertex="1">
          <mxGeometry x="230" y="980" width="45.6" height="61.800000000000004" as="geometry" />
        </mxCell>
        <mxCell id="Up9sGDlBvwnV9ssLS-Lt-52" value="" style="image;points=[];aspect=fixed;html=1;align=center;shadow=0;dashed=0;image=img/lib/allied_telesis/computer_and_terminals/Personal_Computer.svg;" parent="1" vertex="1">
          <mxGeometry x="295" y="980" width="45.6" height="61.800000000000004" as="geometry" />
        </mxCell>
        <mxCell id="Up9sGDlBvwnV9ssLS-Lt-53" value="" style="image;points=[];aspect=fixed;html=1;align=center;shadow=0;dashed=0;image=img/lib/allied_telesis/storage/Datacenter_Server_Half_Rack_ToR.svg;" parent="1" vertex="1">
          <mxGeometry x="438" y="971.9" width="60.03" height="78" as="geometry" />
        </mxCell>
        <mxCell id="Up9sGDlBvwnV9ssLS-Lt-54" value="" style="image;points=[];aspect=fixed;html=1;align=center;shadow=0;dashed=0;image=img/lib/allied_telesis/storage/Datacenter_Server_Half_Rack_ToR.svg;" parent="1" vertex="1">
          <mxGeometry x="502.75" y="971.9" width="60.03" height="78" as="geometry" />
        </mxCell>
        <mxCell id="Up9sGDlBvwnV9ssLS-Lt-55" value="" style="image;points=[];aspect=fixed;html=1;align=center;shadow=0;dashed=0;image=img/lib/allied_telesis/storage/Datacenter_Server_Half_Rack_ToR.svg;" parent="1" vertex="1">
          <mxGeometry x="597" y="971.9" width="60.03" height="78" as="geometry" />
        </mxCell>
        <mxCell id="Up9sGDlBvwnV9ssLS-Lt-56" value="" style="image;points=[];aspect=fixed;html=1;align=center;shadow=0;dashed=0;image=img/lib/allied_telesis/storage/Datacenter_Server_Half_Rack_ToR.svg;" parent="1" vertex="1">
          <mxGeometry x="663" y="971.9" width="60.03" height="78" as="geometry" />
        </mxCell>
      </root>
    </mxGraphModel>
  </diagram>
</mxfile>
